<?xml version="1.0" encoding="UTF-8"?>
<svg width="74px" height="34px" viewBox="0 0 74 34" version="1.1" xmlns="http://www.w3.org/2000/svg" xmlns:xlink="http://www.w3.org/1999/xlink">
    <!-- Generator: Sketch 49 (51002) - http://www.bohemiancoding.com/sketch -->
    <title>Group 2</title>
    <desc>Created with Sketch.</desc>
    <defs></defs>
    <g id="Page-5" stroke="none" stroke-width="1" fill="none" fill-rule="evenodd">
        <g id="Open-source---opt2" transform="translate(-682.000000, -1212.000000)" fill="#243E56" fill-rule="nonzero" stroke="#243E56">
            <g id="About-program" transform="translate(0.000000, 987.000000)">
                <g id="No-expiration" transform="translate(602.166667, 182.000000)">
                    <g id="no-expiration-copy" transform="translate(57.000000, 0.000000)">
                        <g id="Group-2" transform="translate(24.000000, 32.000000)">
                            <path d="M67.4891303,39.3960178 C64.3620753,42.5222709 60.2517503,44.0894075 56.1414253,44.0894075 C52.0311003,44.0894075 47.9207753,42.5222709 44.7937202,39.3960178 C44.6886563,39.2909539 44.285243,38.8875406 44.180179,38.7824766 L40.231059,34.8325546 C39.5020277,34.1035233 39.5020277,32.9213537 40.2350691,32.1883123 C40.9641004,31.459281 42.1462699,31.459281 42.8793113,32.1883123 L46.8284314,36.1382344 C46.9334953,36.2465064 47.3337006,36.6467117 47.4379625,36.7517756 C52.236416,41.5502291 60.0456325,41.5502291 64.8440861,36.7517756 C67.1707305,34.4251311 68.4491418,31.3365728 68.4491418,28.0483128 C68.4491418,24.7600528 67.1699285,21.6674844 64.8440861,19.34485 C60.0456325,14.5463965 52.236416,14.5463965 47.4379625,19.34485 L27.3875967,39.3952158 C24.3543773,42.4252271 20.3266599,44.0966256 16.0406937,44.0966256 C11.7547275,44.0966256 7.7229999,42.4252271 4.69298862,39.3952158 C-1.56432954,33.1378977 -1.56432954,22.9579259 4.69298862,16.7006078 C7.7229999,13.6673884 11.7547275,12 16.0406937,12 C20.3266599,12 24.3551794,13.6681904 27.3883987,16.7014098 C27.4629861,16.7759971 27.7549194,17.0679305 27.8295067,17.1425178 L28.0011379,17.314149 L28.0011379,14.3338626 C28.0011379,13.3016697 28.8392432,12.4635645 29.871436,12.4635645 C30.9036288,12.4635645 31.7417341,13.3016697 31.7417341,14.3338626 L31.7417341,21.8286893 C31.7417341,22.8608822 30.9036288,23.6989874 29.871436,23.6989874 L22.3766093,23.6989874 C21.3444164,23.6989874 20.5063111,22.8608822 20.5063111,21.8286893 C20.5063111,20.7964965 21.3444164,19.9583912 22.3766093,19.9583912 L25.3576976,19.9583912 L25.1860665,19.7859581 C25.1074691,19.7113707 24.8195458,19.4194374 24.7449585,19.34485 C22.418314,17.0182056 19.3289536,15.7397942 16.0414957,15.7397942 C12.7540377,15.7397942 9.66066725,17.0190076 7.33803288,19.34485 C5.01138843,21.6674844 3.73217509,24.7608548 3.73217509,28.0483128 C3.73217509,31.3357708 5.01138843,34.4251311 7.33723086,36.7517756 C9.65986524,39.07441 12.7524337,40.3568314 16.0406937,40.3568314 C19.3281516,40.3568314 22.417512,39.0736079 24.7441564,36.7517756 L44.7945223,16.7014098 C51.0518404,10.4440916 61.2318121,10.4440916 67.4891303,16.7014098 C73.7464485,22.9587279 73.7456465,33.1386997 67.4891303,39.3960178 Z" id="Shape"></path>
                        </g>
                    </g>
                </g>
            </g>
        </g>
    </g>
</svg>